<svg width="20" height="20" viewBox="0 0 20 20" fill="none" xmlns="http://www.w3.org/2000/svg">
<path fill-rule="evenodd" clip-rule="evenodd" d="M10.9202 3.48068L12.4431 6.52297C12.5923 6.82163 12.8804 7.02873 13.2145 7.07666L16.6211 7.56702C17.4628 7.68854 17.7977 8.70863 17.1886 9.29312L14.7252 11.6602C14.4831 11.893 14.3729 12.2276 14.4301 12.5562L15.0115 15.898C15.1547 16.7247 14.2748 17.3554 13.5225 16.9643L10.4777 15.3854C10.1792 15.2305 9.82168 15.2305 9.52232 15.3854L6.4775 16.9643C5.72519 17.3554 4.84533 16.7247 4.98937 15.898L5.56987 12.5562C5.62714 12.2276 5.51694 11.893 5.27485 11.6602L2.8114 9.29312C2.20226 8.70863 2.5372 7.68854 3.37889 7.56702L6.78554 7.07666C7.11961 7.02873 7.40856 6.82163 7.55781 6.52297L9.07979 3.48068C9.45638 2.72845 10.5436 2.72845 10.9202 3.48068Z" stroke="#4A21EF" stroke-width="1.5" stroke-linecap="round" stroke-linejoin="round"/>
</svg>
