<svg width="60" height="60" viewBox="0 0 60 60" fill="none" xmlns="http://www.w3.org/2000/svg">
<rect width="60" height="60" rx="30" fill="#4A21EF"/>
<path d="M30.0002 20C25.3475 20 21.5791 20.5263 21.5791 24.2105V34.7368C21.5791 35.6684 21.9896 36.4947 22.6317 37.0737V38.9474C22.6317 39.5263 23.1054 40 23.6843 40H24.737C25.3212 40 25.7896 39.5263 25.7896 38.9474V37.8948H34.2107V38.9474C34.2107 39.5263 34.6791 40 35.2633 40H36.3159C36.8949 40 37.3685 39.5263 37.3685 38.9474V37.0737C38.0106 36.4948 38.4212 35.6684 38.4212 34.7369V24.2105C38.4212 20.5263 34.6528 20 30.0002 20ZM25.2633 35.7895C24.3896 35.7895 23.6844 35.0842 23.6844 34.2105C23.6844 33.3368 24.3896 32.6316 25.2633 32.6316C26.137 32.6316 26.8423 33.3368 26.8423 34.2105C26.8423 35.0842 26.137 35.7895 25.2633 35.7895ZM34.737 35.7895C33.8633 35.7895 33.1581 35.0842 33.1581 34.2105C33.1581 33.3368 33.8633 32.6316 34.737 32.6316C35.6107 32.6316 36.316 33.3368 36.316 34.2105C36.316 35.0842 35.6107 35.7895 34.737 35.7895ZM36.316 29.4737H23.6844V24.2105H36.316V29.4737Z" fill="white"/>
</svg>
