<svg width="60" height="60" viewBox="0 0 60 60" fill="none" xmlns="http://www.w3.org/2000/svg">
<rect width="60" height="60" rx="30" fill="#4A21EF"/>
<path d="M41.4086 29.7658C41.0378 29.3954 40.5448 29.1857 40.0209 29.1759L39.4934 29.1659L39.3558 28.6567C38.5416 25.6461 36.3438 23.2848 33.5608 22.1824C33.8943 22.774 34.085 23.4563 34.085 24.1824C34.085 26.4349 32.2524 28.2675 30 28.2675C27.7475 28.2675 25.9149 26.4349 25.9149 24.1824H27.3203C27.3203 25.66 28.5224 26.8621 30 26.8621C31.4775 26.8621 32.6797 25.66 32.6797 24.1824C32.6797 22.7049 31.4775 21.5027 30 21.5027C29.8634 21.5027 29.7273 21.5056 29.5918 21.5113H29.4649C28.1465 21.5076 27.0751 20.4341 27.0751 19.1149H25.6697C25.6697 20.0227 25.9899 20.8568 26.5228 21.5113H25.8425C24.521 21.5113 23.4459 20.4362 23.4459 19.1147H22.0406C22.0406 20.9534 23.3527 22.4912 25.0897 22.8415C22.9566 24.0964 21.3215 26.1519 20.6442 28.6567L20.5065 29.1659L19.9791 29.1759C19.4552 29.1857 18.9622 29.3954 18.5909 29.7663C18.21 30.1476 18 30.6548 18 31.1941C18 32.2864 18.8879 33.1918 19.9792 33.2124L20.5066 33.2224L20.6442 33.7315C21.7833 37.9437 25.6305 40.8855 30 40.8855C34.3694 40.8855 38.2166 37.9437 39.3557 33.7315L39.4934 33.2224L40.0208 33.2124C41.1121 33.1918 42 32.2864 42 31.1941C42 30.6548 41.79 30.1476 41.4086 29.7658ZM25.4633 30.3984C24.8502 30.3984 24.3513 30.8972 24.3513 31.5104H22.946C22.946 30.1223 24.0753 28.993 25.4633 28.993C26.8514 28.993 27.9806 30.1223 27.9806 31.5104H26.5753C26.5754 30.8972 26.0765 30.3984 25.4633 30.3984ZM30 37.6304C28.4744 37.6304 27.0442 36.8128 26.2676 35.4968L27.478 34.7826C28.003 35.6723 28.9694 36.225 30 36.225C31.0306 36.225 31.9971 35.6723 32.5221 34.7826L33.7324 35.4968C32.9558 36.8128 31.5257 37.6304 30 37.6304ZM35.6487 31.5104C35.6487 30.8972 35.1498 30.3984 34.5367 30.3984C33.9235 30.3984 33.4247 30.8972 33.4247 31.5104H32.0193C32.0193 30.1223 33.1486 28.993 34.5367 28.993C35.9247 28.993 37.054 30.1223 37.054 31.5104H35.6487Z" fill="white"/>
</svg>
