<svg width="60" height="60" viewBox="0 0 60 60" fill="none" xmlns="http://www.w3.org/2000/svg">
<rect width="60" height="60" rx="30" fill="#4A21EF"/>
<path d="M29.9995 40C31.34 40 32.4461 38.9109 32.5981 37.5071C32.6174 37.3289 32.4639 37.1754 32.2841 37.1754H27.7133C27.5336 37.1754 27.3801 37.3289 27.3993 37.5071C27.5521 38.9109 28.6574 40 29.9987 40H29.9995ZM26.5177 20.912C25.412 21.5303 24.5108 22.4578 23.9245 23.5808C22.5392 26.2519 22.9843 29.3434 24.8316 31.4383C26.4367 33.2586 27.2551 35.6698 27.3168 35.8557C27.3646 36.0145 27.4622 36.1537 27.5954 36.2526C27.7285 36.3515 27.8899 36.4049 28.0557 36.4049H29.0739C29.0946 36.4056 29.1152 36.4021 29.1346 36.3947C29.1539 36.3873 29.1716 36.376 29.1865 36.3616C29.2014 36.3472 29.2132 36.33 29.2213 36.3109C29.2294 36.2918 29.2336 36.2713 29.2336 36.2506L29.2282 30.8852L27.8621 29.52C27.7905 29.4484 27.7336 29.3634 27.6948 29.2698C27.656 29.1762 27.636 29.0759 27.636 28.9746C27.6359 28.8732 27.6559 28.7729 27.6946 28.6793C27.7333 28.5857 27.7901 28.5006 27.8617 28.429C27.9334 28.3573 28.0184 28.3004 28.112 28.2616C28.2056 28.2228 28.3059 28.2028 28.4072 28.2028C28.5085 28.2028 28.6088 28.2227 28.7024 28.2614C28.7961 28.3002 28.8811 28.357 28.9528 28.4286L29.9995 29.4753L31.0462 28.4286C31.1178 28.3569 31.2028 28.3001 31.2964 28.2613C31.39 28.2224 31.4903 28.2025 31.5916 28.2024C31.6929 28.2024 31.7932 28.2223 31.8869 28.261C31.9805 28.2998 32.0655 28.3566 32.1372 28.4282C32.2089 28.4998 32.2657 28.5848 32.3045 28.6784C32.3433 28.772 32.3633 28.8723 32.3634 28.9736C32.3634 29.0749 32.3435 29.1753 32.3047 29.2689C32.266 29.3625 32.2092 29.4476 32.1376 29.5192L30.7708 30.8852L30.7654 36.2506C30.7654 36.2713 30.7696 36.2918 30.7776 36.3109C30.7857 36.33 30.7976 36.3472 30.8125 36.3616C30.8274 36.376 30.845 36.3873 30.8644 36.3947C30.8837 36.4021 30.9044 36.4056 30.9251 36.4049H31.9432C32.1341 36.4049 32.3182 36.3342 32.4599 36.2064C32.6017 36.0786 32.691 35.9028 32.7107 35.713C32.7223 35.6204 32.993 33.7415 34.966 31.6573C35.5368 31.0549 36.0143 30.36 36.3359 29.5948C36.901 28.2678 37.0359 26.7971 36.7217 25.3895C36.4075 23.9818 35.66 22.7081 34.5842 21.7474C32.4469 19.8383 29.2374 19.3948 26.5177 20.912Z" fill="white"/>
</svg>
