<svg width="60" height="60" viewBox="0 0 60 60" fill="none" xmlns="http://www.w3.org/2000/svg">
<rect width="60" height="60" rx="30" fill="#4A21EF"/>
<path d="M26.5117 23.8408H33.4877L35.6971 19.7619C35.7681 19.6307 35.7956 19.4803 35.7755 19.3324C35.7554 19.1845 35.6888 19.0469 35.5853 18.9394C35.4818 18.8319 35.3467 18.7601 35.1997 18.7344C35.0527 18.7087 34.9013 18.7305 34.7675 18.7966C33.1864 19.5772 31.8038 19.2441 30.2029 18.8586C28.6197 18.4772 26.8256 18.045 24.6955 18.7605C24.5983 18.7931 24.5094 18.8467 24.4351 18.9173C24.3608 18.988 24.3028 19.074 24.2652 19.1695C24.2276 19.2649 24.2114 19.3674 24.2176 19.4697C24.2239 19.5721 24.2524 19.6719 24.3013 19.762L26.5117 23.8408ZM34.2232 25.5326C34.1318 25.438 34.0398 25.3426 33.9472 25.2467H26.0522C25.9597 25.3425 25.8677 25.4378 25.7762 25.5326C24.3506 27.0075 23.0041 28.4007 22.0018 29.9601C20.8493 31.7533 20.3125 33.5111 20.3125 35.4923C20.3125 37.7911 21.5519 39.5461 23.8967 40.5676C25.9021 41.4412 28.3221 41.6246 29.9991 41.6246C31.6884 41.6246 34.1218 41.4411 36.1214 40.5672C38.4541 39.5477 39.6871 37.7929 39.6871 35.4923C39.6871 33.5112 39.1502 31.7533 37.9978 29.9601C36.9955 28.4007 35.6489 27.0075 34.2232 25.5326ZM30.1437 32.0452C30.6473 32.1511 31.168 32.2608 31.6146 32.5551C32.1949 32.9377 32.4892 33.5289 32.4892 34.3124C32.4892 35.3468 31.7338 36.2221 30.7021 36.5008V36.8636C30.7021 37.05 30.628 37.2289 30.4961 37.3608C30.3643 37.4926 30.1854 37.5667 29.9989 37.5667C29.8125 37.5667 29.6336 37.4926 29.5018 37.3608C29.3699 37.2289 29.2958 37.05 29.2958 36.8636V36.5008C28.2641 36.2221 27.5087 35.3468 27.5087 34.3124C27.5087 34.126 27.5828 33.9471 27.7146 33.8153C27.8465 33.6834 28.0253 33.6093 28.2118 33.6093C28.3983 33.6093 28.5772 33.6834 28.709 33.8153C28.8409 33.9471 28.915 34.126 28.915 34.3124C28.915 34.7953 29.4012 35.1878 29.9989 35.1878C30.5966 35.1878 31.0829 34.7951 31.0829 34.3124C31.0829 33.7687 30.9107 33.6436 29.8541 33.4213C29.3506 33.3154 28.8299 33.2057 28.3833 32.9114C27.8029 32.5288 27.5087 31.9376 27.5087 31.1541C27.5087 30.1191 28.2641 29.2433 29.2958 28.9644V28.6029C29.2958 28.4164 29.3699 28.2376 29.5018 28.1057C29.6336 27.9739 29.8125 27.8998 29.9989 27.8998C30.1854 27.8998 30.3643 27.9739 30.4961 28.1057C30.628 28.2376 30.7021 28.4164 30.7021 28.6029V28.9642C31.7338 29.2431 32.4892 30.1189 32.4892 31.1539C32.4892 31.3404 32.4151 31.5192 32.2832 31.6511C32.1514 31.783 31.9725 31.857 31.786 31.857C31.5996 31.857 31.4207 31.783 31.2889 31.6511C31.157 31.5192 31.0829 31.3404 31.0829 31.1539C31.0829 30.6705 30.5966 30.2773 29.9989 30.2773C29.4012 30.2773 28.915 30.6706 28.915 31.1539C28.9151 31.6979 29.0874 31.8229 30.1439 32.0452H30.1437Z" fill="white"/>
</svg>
