<svg width="60" height="60" viewBox="0 0 60 60" fill="none" xmlns="http://www.w3.org/2000/svg">
<rect width="60" height="60" rx="30" fill="#4A21EF"/>
<path fill-rule="evenodd" clip-rule="evenodd" d="M25.9822 20C26.3977 20 26.7355 20.3467 26.7355 20.7734V21.0245L26.8833 20.9867C28.9821 20.4817 31.1722 20.4946 33.2648 21.0245V20.7734C33.2648 20.3467 33.6026 20 34.0182 20C34.4337 20 34.7726 20.3467 34.7726 20.7734V21.5879C36.9205 22.6524 38.5262 24.6658 39.084 27.1104C39.5649 29.2156 39.5649 31.4022 39.084 33.5074C38.3895 36.5454 36.0783 38.9188 33.117 39.63C31.0684 40.1233 28.9319 40.1233 26.8833 39.63C23.9221 38.9188 21.6108 36.5465 20.9163 33.5074C20.4354 31.4022 20.4354 29.2156 20.9163 27.1104C21.4741 24.6658 23.0798 22.6524 25.2277 21.5879V20.7734C25.2277 20.3467 25.5655 20 25.9822 20ZM28.919 27.6538C29.0322 27.5363 29.0954 27.3796 29.0954 27.2165C29.0954 27.0534 29.0322 26.8967 28.919 26.7793C28.8638 26.722 28.7976 26.6765 28.7243 26.6454C28.6511 26.6143 28.5724 26.5983 28.4929 26.5983C28.4133 26.5983 28.3346 26.6143 28.2614 26.6454C28.1882 26.6765 28.122 26.722 28.0667 26.7793L26.4844 28.4038L25.9066 27.8104C25.8514 27.753 25.7851 27.7074 25.7118 27.6762C25.6384 27.645 25.5596 27.6289 25.4799 27.6289C25.4002 27.6289 25.3214 27.645 25.2481 27.6762C25.1748 27.7074 25.1085 27.753 25.0532 27.8104C24.94 27.9278 24.8768 28.0846 24.8768 28.2477C24.8768 28.4108 24.94 28.5675 25.0532 28.6849L26.0577 29.7161C26.113 29.7733 26.1792 29.8188 26.2524 29.8499C26.3256 29.881 26.4043 29.897 26.4839 29.897C26.5634 29.897 26.6421 29.881 26.7153 29.8499C26.7886 29.8188 26.8548 29.7733 26.91 29.7161L28.919 27.6538ZM31.0047 28.1438C30.8428 28.1461 30.6884 28.2126 30.5755 28.3287C30.4626 28.4447 30.4003 28.6008 30.4024 28.7627C30.4003 28.9246 30.4626 29.0807 30.5755 29.1968C30.6884 29.3128 30.8428 29.3793 31.0047 29.3816H34.5204C34.8538 29.3816 35.1238 29.1038 35.1238 28.7627C35.1259 28.6008 35.0636 28.4447 34.9507 28.3287C34.8378 28.2126 34.6834 28.1461 34.5215 28.1438H31.0047ZM28.919 32.8085C29.0322 32.6911 29.0954 32.5343 29.0954 32.3712C29.0954 32.2081 29.0322 32.0514 28.919 31.934C28.8638 31.8768 28.7976 31.8312 28.7243 31.8002C28.6511 31.7691 28.5724 31.753 28.4929 31.753C28.4133 31.753 28.3346 31.7691 28.2614 31.8002C28.1882 31.8312 28.122 31.8768 28.0667 31.934L26.4844 33.5563L25.9066 32.9629C25.8514 32.9055 25.7851 32.8599 25.7118 32.8287C25.6384 32.7975 25.5596 32.7814 25.4799 32.7814C25.4002 32.7814 25.3214 32.7975 25.2481 32.8287C25.1748 32.8599 25.1085 32.9055 25.0532 32.9629C24.94 33.0804 24.8768 33.2371 24.8768 33.4002C24.8768 33.5633 24.94 33.72 25.0532 33.8374L26.0577 34.8686C26.113 34.9258 26.1792 34.9713 26.2524 35.0024C26.3256 35.0335 26.4043 35.0495 26.4839 35.0495C26.5634 35.0495 26.6421 35.0335 26.7153 35.0024C26.7886 34.9713 26.8548 34.9258 26.91 34.8686L28.919 32.8085ZM31.0047 33.2985C30.8428 33.3009 30.6884 33.3673 30.5755 33.4834C30.4626 33.5994 30.4003 33.7555 30.4024 33.9174C30.4006 34.0791 30.463 34.235 30.5759 34.3508C30.6888 34.4666 30.843 34.5329 31.0047 34.5352H34.5204C34.8538 34.5352 35.1238 34.2586 35.1238 33.9174C35.1259 33.7555 35.0636 33.5994 34.9507 33.4834C34.8378 33.3673 34.6834 33.3009 34.5215 33.2985H31.0047Z" fill="white"/>
</svg>
