<svg width="60" height="60" viewBox="0 0 60 60" fill="none" xmlns="http://www.w3.org/2000/svg">
<rect width="60" height="60" rx="30" fill="#4A21EF"/>
<path d="M39.75 21V39C39.75 40.2375 38.7375 41.25 37.5 41.25C37.9725 40.6275 38.25 39.8475 38.25 39V21C38.25 20.1525 37.9725 19.3725 37.5 18.75C38.7375 18.75 39.75 19.7625 39.75 21ZM28.5 31.4325C28.7423 31.1242 29.133 30.1275 29.2275 28.5H27.7725C27.867 30.1275 28.2577 31.1242 28.5 31.4325ZM24.8257 28.5C25.0462 29.5807 25.7415 30.48 26.6745 31.005C26.4495 30.2723 26.3182 29.4 26.271 28.5H24.8257ZM27.7718 27H29.2282C29.133 25.3725 28.7423 24.3758 28.5 24.0675C28.2577 24.3758 27.8663 25.3725 27.7718 27ZM24.8257 27H26.271C26.3182 26.1 26.4495 25.2277 26.6745 24.495C25.7415 25.02 25.0462 25.9193 24.8257 27ZM36.75 21V39C36.75 40.2405 35.7405 41.25 34.5 41.25H22.5C21.2595 41.25 20.25 40.2405 20.25 39V21C20.25 19.7595 21.2595 18.75 22.5 18.75H34.5C35.7405 18.75 36.75 19.7595 36.75 21ZM31.5 36H25.5V37.5H31.5V36ZM33.75 27.75C33.75 24.855 31.395 22.5 28.5 22.5C25.605 22.5 23.25 24.855 23.25 27.75C23.25 30.645 25.605 33 28.5 33C31.395 33 33.75 30.645 33.75 27.75ZM30.3255 24.495C30.5505 25.2277 30.6818 26.1 30.729 27H32.1735C31.9538 25.9193 31.2585 25.02 30.3255 24.495ZM30.3255 31.005C31.2585 30.48 31.9538 29.5807 32.1735 28.5H30.729C30.6818 29.4 30.5505 30.2723 30.3255 31.005Z" fill="white"/>
</svg>
