<svg width="60" height="61" viewBox="0 0 60 61" fill="none" xmlns="http://www.w3.org/2000/svg">
<rect y="0.762695" width="60" height="60" rx="30" fill="#4A21EF"/>
<g clip-path="url(#clip0_1318_3769)">
<path d="M29.1674 25.3975H27.9762V19.4479C27.9762 19.0695 27.6688 18.7627 27.2895 18.7627H22.4949C22.1157 18.7627 21.8083 19.0695 21.8083 19.4479V25.3975H20.6171C19.174 25.3975 18 26.5691 18 28.0092V40.1463C18 41.5864 19.174 42.758 20.6171 42.758H24.5934C23.9055 41.9987 23.486 40.9927 23.486 39.8906V32.2248C23.486 29.8656 25.408 27.9464 27.7704 27.9464H29.0871V27.1735C29.0871 26.4961 29.4065 25.8922 29.9022 25.5029C29.6635 25.433 29.4161 25.3975 29.1674 25.3975ZM23.1816 25.3975V20.1331H26.6029V25.3975H23.1816Z" fill="white"/>
<path d="M39.1222 29.3523H36.3993V27.1732C36.3993 26.7766 36.0771 26.4551 35.6797 26.4551H31.2133C30.8159 26.4551 30.4937 26.7766 30.4937 27.1732V29.3523H27.7707C26.1837 29.3523 24.8926 30.6407 24.8926 32.2244V36.766H42.0004V32.2244C42.0004 30.6407 40.7093 29.3523 39.1222 29.3523ZM31.933 27.8913H34.9601V29.3523H31.933V27.8913ZM24.8927 39.8902C24.8927 41.4739 26.1838 42.7623 27.7708 42.7623H39.1223C40.7093 42.7623 42.0004 41.4739 42.0004 39.8902V38.2022H24.8927V39.8902Z" fill="white"/>
</g>
<defs>
<clipPath id="clip0_1318_3769">
<rect width="24" height="24" fill="white" transform="translate(18 18.7627)"/>
</clipPath>
</defs>
</svg>
