<svg width="60" height="61" viewBox="0 0 60 61" fill="none" xmlns="http://www.w3.org/2000/svg">
<rect y="0.762695" width="60" height="60" rx="30" fill="#4A21EF"/>
<path d="M29.7733 30.2097C32.5956 30.2097 34.8835 27.9218 34.8835 25.0995C34.8835 22.2772 32.5956 19.9893 29.7733 19.9893C26.951 19.9893 24.6631 22.2772 24.6631 25.0995C24.6631 27.9218 26.951 30.2097 29.7733 30.2097Z" fill="white"/>
<path fill-rule="evenodd" clip-rule="evenodd" d="M34.9704 41.0493C35.111 41.1897 35.3016 41.2686 35.5004 41.2686C35.6991 41.2686 35.8897 41.1897 36.0304 41.0493L39.7594 37.3203C40.3938 36.6848 40.7501 35.8236 40.7501 34.9258C40.7501 34.0279 40.3938 33.1667 39.7594 32.5313C39.2076 31.9802 38.4827 31.6363 37.7069 31.5574C36.931 31.4786 36.1518 31.6696 35.5004 32.0983C34.849 31.6696 34.0697 31.4786 33.2939 31.5574C32.5181 31.6363 31.7932 31.9802 31.2414 32.5313C30.6098 33.1642 30.2538 34.021 30.251 34.9152C30.2482 35.8093 30.5988 36.6684 31.2264 37.3053L34.9704 41.0493Z" fill="white"/>
<path fill-rule="evenodd" clip-rule="evenodd" d="M32.227 40.4227L29.6561 37.8518C28.9485 37.1342 28.5317 36.18 28.486 35.1732C28.4404 34.1664 28.7692 33.1784 29.409 32.3997C29.1795 32.3904 28.9481 32.3857 28.714 32.3857C25.6274 32.3857 22.8949 33.1578 21.1983 34.3146C19.904 35.1973 19.1904 36.3187 19.1904 37.496V38.8432C19.1909 39.262 19.3575 39.6634 19.6536 39.9595C19.9497 40.2556 20.3512 40.4222 20.7699 40.4227H32.227Z" fill="white"/>
</svg>
