<svg width="60" height="61" viewBox="0 0 60 61" fill="none" xmlns="http://www.w3.org/2000/svg">
<rect y="0.762695" width="60" height="60" rx="30" fill="#4A21EF"/>
<g clip-path="url(#clip0_1318_3761)">
<path d="M36.75 18.6133C33.855 18.6133 31.5 20.9683 31.5 23.8633C31.5 26.5573 35.712 31.3288 36.192 31.8643C36.3345 32.0218 36.537 32.1133 36.75 32.1133C36.963 32.1133 37.1655 32.0218 37.308 31.8643C37.788 31.3288 42 26.5573 42 23.8633C42 20.9683 39.645 18.6133 36.75 18.6133ZM36.75 26.1133C35.508 26.1133 34.5 25.1053 34.5 23.8633C34.5 22.6213 35.508 21.6133 36.75 21.6133C37.992 21.6133 39 22.6213 39 23.8633C39 25.1053 37.992 26.1133 36.75 26.1133ZM18.471 27.4243C18.3319 27.4804 18.2128 27.5767 18.1288 27.701C18.0449 27.8253 18 27.9718 18 28.1218V41.8633C18 42.1123 18.1245 42.3448 18.33 42.4843C18.456 42.5683 18.6015 42.6133 18.75 42.6133C18.8445 42.6133 18.939 42.5953 19.029 42.5593L25.5 39.9703V24.6133L18.471 27.4243Z" fill="white"/>
<path d="M38.424 32.8663C37.998 33.3403 37.3875 33.6133 36.75 33.6133C36.1125 33.6133 35.502 33.3403 35.076 32.8663C34.923 32.6968 34.7265 32.4733 34.5 32.2078V42.6133L41.529 39.8023C41.814 39.6898 42 39.4123 42 39.1063V28.0798C40.7715 30.1603 39.129 32.0803 38.424 32.8663ZM30.4725 26.0023L27 24.6133V39.9703L33 42.3703V30.3253C32.0415 29.0338 31.041 27.4783 30.4725 26.0023Z" fill="white"/>
</g>
<defs>
<clipPath id="clip0_1318_3761">
<rect width="24" height="24" fill="white" transform="translate(18 18.7627)"/>
</clipPath>
</defs>
</svg>
