<svg width="60" height="60" viewBox="0 0 60 60" fill="none" xmlns="http://www.w3.org/2000/svg">
<rect width="60" height="60" rx="30" fill="#4A21EF"/>
<path d="M29.4908 23.1636C30.8163 23.1636 31.8908 22.0891 31.8908 20.7636C31.8908 19.4382 30.8163 18.3636 29.4908 18.3636C28.1653 18.3636 27.0908 19.4382 27.0908 20.7636C27.0908 22.0891 28.1653 23.1636 29.4908 23.1636Z" fill="white"/>
<path d="M36.9091 25.8182V25.0909C37.4909 24.9455 37.8909 24.4 37.8909 23.7819C37.8909 23.0546 37.2727 22.4364 36.5455 22.4364C35.8182 22.4364 35.2 23.0546 35.2 23.7819C35.2 24.4 35.6364 24.9091 36.1818 25.0909V25.8182H33.9273L31.7818 24.3273C31.1636 23.9273 30.4727 23.6728 29.7455 23.6728H28.9091C28.1091 23.6728 27.3818 24 26.8727 24.5455V24.1091C26.8727 23.4909 26.3636 22.9819 25.7455 22.9819H24.1818C23.5636 22.9819 23.0545 23.4909 23.0545 24.1091V24.9455C22.4727 24.9819 22 25.4909 22 26.0728V31.4546C22 32.0728 22.5091 32.5819 23.1273 32.5819H26.0364C26 32.8 25.9636 33.0182 25.9273 33.2728L25.5273 35.5273C25.4909 35.7091 25.4182 35.8546 25.3091 36L22.4727 39.6L22.4364 39.6364C22.1091 40.2909 22.3273 41.0909 22.9818 41.4182C23.1636 41.5273 23.3818 41.5637 23.6 41.5637C24.0727 41.5637 24.5091 41.3091 24.7273 40.9091L27.8182 36.9091L27.8545 36.8728C27.9273 36.7637 27.9636 36.6182 27.9636 36.5091L28.8364 33.1273L31.5273 37.0546L31.5636 40.3273C31.5636 40.8728 31.8909 41.3455 32.4 41.5273C32.5455 41.6 32.7273 41.6 32.8727 41.6C33.6 41.6 34.1818 41.0182 34.1818 40.2546L34.0364 36.5455C34.0364 36.1819 33.8909 35.8546 33.7091 35.5637C33.0909 34.6909 31.6 32.5455 31.6 32.5455C31.4182 32.2909 31.3091 32 31.3091 31.6728V27.2728L32.1091 27.7819C32.6909 28.1455 33.3818 28.3273 34.0727 28.3273H36.1818V41.2C36.1818 41.3819 36.3273 41.5637 36.5455 41.5637C36.7636 41.5637 36.9091 41.3819 36.9091 41.2V28.3273C37.5273 28.2546 38 27.7091 38 27.0909C38 26.4728 37.5273 25.8909 36.9091 25.8182ZM23.1273 31.8546C22.9091 31.8546 22.7273 31.6728 22.7273 31.4546V30.7273H23.8182C24.0364 30.7273 24.1818 30.5455 24.1818 30.3637C24.1818 30.1819 24.0364 30 23.8182 30H22.7273V29.1637H23.8182C24.0364 29.1637 24.1818 28.9819 24.1818 28.8C24.1818 28.6182 24.0364 28.4364 23.8182 28.4364H22.7273V27.5637H23.8182C24.0364 27.5637 24.1818 27.4182 24.1818 27.2C24.1818 27.0182 24.0364 26.8364 23.8182 26.8364H22.7273V26.1091C22.7273 25.8909 22.9091 25.7091 23.1273 25.7091H26.1091V31.2728C26.1091 31.4909 26.1091 31.7091 26.0727 31.9273H23.1273V31.8546Z" fill="white"/>
</svg>
